<?xml version="1.0" encoding="UTF-8"?>
<svg width="1200" height="600" viewBox="0 0 1200 600"
     xmlns="http://www.w3.org/2000/svg" role="img" aria-label="RYV Sistemas - Traffic (alto tránsito)">
  <defs>
    <clipPath id="round"><rect x="0" y="0" width="1200" height="600" rx="16" ry="16"/></clipPath>
    <linearGradient id="bg" x1="0" y1="0" x2="1" y2="1">
      <stop offset="0" stop-color="#0f1116"/><stop offset="1" stop-color="#1b2433"/>
    </linearGradient>
    <pattern id="dots" x="0" y="0" width="20" height="20" patternUnits="userSpaceOnUse">
      <circle cx="1.5" cy="1.5" r="1.5" fill="#ffffff" opacity="0.08"/>
    </pattern>
    <linearGradient id="copper" x1="0" y1="0" x2="1" y2="0">
      <stop offset="0" stop-color="#C62F36"/><stop offset="1" stop-color="#E24E55"/>
    </linearGradient>
    <linearGradient id="glow" x1="0" y1="0" x2="0" y2="1">
      <stop offset="0" stop-color="#FFFFFF" stop-opacity="0.16"/>
      <stop offset="1" stop-color="#FFFFFF" stop-opacity="0"/>
    </linearGradient>
  </defs>
  <g clip-path="url(#round)">
    <rect width="1200" height="600" fill="url(#bg)"/>
    <rect x="0" y="0" width="560" height="260" fill="url(#dots)"/>
    <g opacity="0.10" stroke="#ffffff" stroke-width="1">
      <line x1="-80" y1="140" x2="340" y2="-80"/>
      <line x1="-40" y1="180" x2="380" y2="-40"/>
      <line x1="0" y1="220" x2="420" y2="0"/>
      <line x1="40" y1="260" x2="460" y2="40"/>
    </g>

  <defs>
    <linearGradient id="accentTr" x1="0" y1="0" x2="1" y2="1">
      <stop offset="0" stop-color="#f59e0b"/><stop offset="1" stop-color="#fb923c"/>
    </linearGradient>
  </defs>

    <!-- Membrane layers (brand copper always present) -->
    <path d="M0 450 C 220 410, 420 520, 700 500 C 880 490, 1040 520, 1200 510 L 1200 600 L 0 600 Z"
          fill="url(#copper)" opacity="0.75"/>
    <path d="M0 520 C 260 500, 520 590, 820 580 C 980 575, 1120 590, 1200 585 L 1200 600 L 0 600 Z"
          fill="#ffffff" opacity="0.06"/>
    
    <path d="M0 470 C 260 430, 420 560, 760 540 C 940 530, 1080 550, 1200 540 L 1200 600 L 0 600 Z"
          fill="url(#accentTr)" opacity="0.85"/>
    <!-- road markings -->
    <g transform="translate(0,430)" opacity="0.85">
      <rect x="0" y="80" width="1200" height="8" fill="#ffffff" opacity="0.8"/>
      <g fill="#ffffff">
        <rect x="80"  y="90" width="60"  height="6" opacity="0.7"/>
        <rect x="200" y="90" width="60"  height="6" opacity="0.7"/>
        <rect x="320" y="90" width="60"  height="6" opacity="0.7"/>
        <rect x="440" y="90" width="60"  height="6" opacity="0.7"/>
        <rect x="560" y="90" width="60"  height="6" opacity="0.7"/>
        <rect x="680" y="90" width="60"  height="6" opacity="0.7"/>
        <rect x="800" y="90" width="60"  height="6" opacity="0.7"/>
        <rect x="920" y="90" width="60"  height="6" opacity="0.7"/>
        <rect x="1040" y="90" width="60" height="6" opacity="0.7"/>
      </g>
      <!-- chevrons -->
      <g fill="#111" opacity="0.22" transform="translate(820,40)">
        <polygon points="0,0 30,18 0,36" /><polygon points="40,0 70,18 40,36" />
        <polygon points="80,0 110,18 80,36" /><polygon points="120,0 150,18 120,36" />
      </g>
    </g>

    <rect x="0" y="0" width="1200" height="140" fill="url(#glow)"/>
  </g>
</svg>